<?xml version="1.0" standalone="no"?>
<!DOCTYPE svg PUBLIC "-//W3C//DTD SVG 20010904//EN"
 "http://www.w3.org/TR/2001/REC-SVG-20010904/DTD/svg10.dtd">
<svg version="1.0" xmlns="http://www.w3.org/2000/svg"
 width="144.000000pt" height="144.000000pt" viewBox="0 0 144.000000 144.000000"
 preserveAspectRatio="xMidYMid meet">
<metadata>
Created by potrace 1.11, written by Peter Selinger 2001-2013
</metadata>
<g transform="translate(0.000000,144.000000) scale(0.100000,-0.100000)"
fill="#000000" stroke="none">
<path d="M186 1283 c-37 -6 -111 -82 -120 -124 -3 -17 -6 -219 -6 -448 0 -382
2 -419 19 -456 22 -48 44 -69 94 -90 31 -13 109 -15 539 -15 315 0 517 4 540
10 52 15 94 53 113 103 14 37 15 97 13 473 l-3 430 -28 43 c-55 82 -41 81
-622 79 -280 0 -523 -3 -539 -5z m1096 -91 l33 -32 3 -426 c2 -373 1 -429 -13
-459 -32 -67 -25 -66 -599 -63 l-516 3 -32 33 -33 32 0 439 0 439 25 27 c14
15 34 31 45 36 11 4 253 7 537 6 l518 -2 32 -33z"/>
<path d="M395 725 c-14 -13 -25 -36 -25 -50 0 -33 42 -75 75 -75 33 0 75 42
75 75 0 33 -42 75 -75 75 -14 0 -37 -11 -50 -25z"/>
<path d="M945 725 c-14 -13 -25 -36 -25 -50 0 -33 42 -75 75 -75 14 0 37 11
50 25 14 13 25 36 25 50 0 14 -11 37 -25 50 -13 14 -36 25 -50 25 -14 0 -37
-11 -50 -25z"/>
<path d="M620 450 l0 -30 100 0 100 0 0 30 0 30 -100 0 -100 0 0 -30z"/>
</g>
</svg>
