<svg viewBox="0 0 1024.000000 1024.000000">
<g transform="translate(0.000000,1024.000000) scale(0.100000,-0.100000)"
fill="#000000" stroke="none">
<path d="M1475 9116 c-60 -19 -84 -34 -143 -90 -67 -63 -99 -125 -112 -213
-12 -84 -13 -813 -1 -905 11 -83 39 -142 97 -207 63 -70 129 -100 245 -111 52
-5 169 -16 261 -25 1285 -122 2565 -662 3579 -1508 978 -818 1721 -1972 2079
-3232 116 -410 202 -911 226 -1310 3 -60 12 -134 19 -163 25 -98 91 -178 195
-233 l45 -24 520 0 520 0 50 26 c63 34 150 125 177 186 30 67 32 148 14 383
-124 1535 -666 2971 -1582 4190 -278 370 -517 638 -920 1030 -616 600 -1419
1145 -2224 1510 -865 391 -1746 619 -2693 695 -223 18 -298 18 -352 1z"/>
<path d="M1530 6200 c-30 -4 -77 -16 -103 -28 -70 -31 -158 -124 -188 -197
l-24 -60 0 -460 c0 -458 0 -460 23 -517 30 -74 108 -160 176 -193 39 -19 90
-30 206 -45 389 -51 688 -127 995 -254 128 -53 392 -190 513 -266 467 -292
927 -759 1209 -1228 267 -442 419 -894 493 -1462 23 -183 44 -234 125 -309
101 -92 95 -91 630 -91 451 0 466 1 522 22 42 15 74 37 114 78 124 127 134
204 78 599 -127 903 -505 1779 -1072 2486 -263 327 -602 658 -939 913 -704
534 -1610 898 -2483 996 -199 23 -214 24 -275 16z"/>
<path d="M2134 3266 c-298 -49 -564 -220 -737 -473 -123 -182 -178 -369 -178
-613 0 -143 15 -242 51 -350 94 -284 339 -548 610 -660 157 -65 215 -75 435
-74 173 0 210 3 277 21 307 86 563 295 704 574 155 310 149 722 -17 1018 -115
205 -326 398 -528 482 -182 76 -429 106 -617 75z"/>
</g>
</svg>
