<svg viewBox="0 0 841.891 595.281">
<g>
	<g>
		<defs>
			<path id="SVGID_1_" d="M15.969,539.152V58.521l279.627,243.07L15.969,539.152z M826.031,539.152L546.349,301.648l279.682-243.24
				V539.152z M421.029,354.871L34.388,23.519C44.785,13.8,58.797,7.726,74.166,7.726h693.498c15.539,0,29.607,5.961,39.947,15.68
				L421.029,354.871z M521.205,325.011l286.35,245.441c-10.396,9.719-24.408,15.82-39.834,15.82H74.222
				c-15.482,0-29.551-5.988-39.891-15.707l286.463-245.611l100.234,87.746L521.205,325.011z"/>
		</defs>
		<clipPath id="SVGID_2_">
			<use xlink:href="#SVGID_1_"  overflow="visible"/>
		</clipPath>
		<rect x="-273.319" y="-281.561" clip-path="url(#SVGID_2_)" fill='#828282' width="1388.637" height="1157.121"/>
	</g>
</g>
</svg>
