<svg width="400" height="300" xmlns="http://www.w3.org/2000/svg" xmlns:xlink="http://www.w3.org/1999/xlink"><defs><path id="a" d="M125 125h50v50h-50z"/><path id="b" d="M75 125h50v50H75z"/><path id="c" d="M75 175h50v50H75z"/><path id="d" d="M125 175h50v50h-50z"/><path id="e" d="M300 257h15v15h-15z"/><path id="f" d="M75 75h50v50H75z"/><path id="g" d="M25 75h50v50H25z"/><path id="h" d="M25 125h50v50H25z"/><path id="i" d="M25 175h50v50H25z"/><path id="j" d="M25 225h50v50H25z"/><path id="k" d="M75 225h50v50H75z"/><path id="l" d="M125 225h50v50h-50z"/><path id="m" d="M25 25h50v50H25z"/><path id="n" d="M75 25h50v50H75z"/><path id="o" d="M125 25h50v50h-50z"/><path id="p" d="M175 25h50v50h-50z"/><path id="q" d="M225 25h50v50h-50z"/><path id="r" d="M225 75h50v50h-50z"/><path id="s" d="M225 125h50v50h-50z"/><path id="t" d="M225 175h50v50h-50z"/><path id="u" d="M225 225h50v50h-50z"/><path id="v" d="M175 75h50v50h-50z"/><path id="w" d="M175 175h50v50h-50z"/><path id="x" d="M300 234h15v15h-15z"/><path id="y" d="M175 225h50v50h-50z"/><path id="z" d="M125 75h50v50h-50z"/><path id="A" d="M175 125h50v50h-50z"/><path id="B" d="M300 211h15v15h-15z"/></defs><g fill="none" fill-rule="evenodd"><use fill="#627D89" xlink:href="#a"/><path stroke="#FFF" d="M125.5 125.5h49v49h-49z"/><use fill="#627D89" xlink:href="#b"/><path stroke="#FFF" d="M75.5 125.5h49v49h-49z"/><use fill="#CFD8DC" xlink:href="#c"/><path stroke="#FFF" d="M75.5 175.5h49v49h-49z"/><use fill="#F1F4F5" xlink:href="#d"/><path stroke="#FFF" d="M125.5 175.5h49v49h-49z"/><use fill="#F1F4F5" xlink:href="#e"/><path stroke="#FFF" d="M300.5 257.5h14v14h-14z"/><use fill="#CFD8DC" xlink:href="#f"/><path stroke="#FFF" d="M75.5 75.5h49v49h-49z"/><use fill="#CFD8DC" xlink:href="#g"/><path stroke="#FFF" d="M25.5 75.5h49v49h-49z"/><use fill="#CFD8DC" xlink:href="#h"/><path stroke="#FFF" d="M25.5 125.5h49v49h-49z"/><use fill="#CFD8DC" xlink:href="#i"/><path stroke="#FFF" d="M25.5 175.5h49v49h-49z"/><use fill="#CFD8DC" xlink:href="#j"/><path stroke="#FFF" d="M25.5 225.5h49v49h-49z"/><use fill="#CFD8DC" xlink:href="#k"/><path stroke="#FFF" d="M75.5 225.5h49v49h-49z"/><use fill="#CFD8DC" xlink:href="#l"/><path stroke="#FFF" d="M125.5 225.5h49v49h-49z"/><use fill="#CFD8DC" xlink:href="#m"/><path stroke="#FFF" d="M25.5 25.5h49v49h-49z"/><use fill="#CFD8DC" xlink:href="#n"/><path stroke="#FFF" d="M75.5 25.5h49v49h-49z"/><use fill="#CFD8DC" xlink:href="#o"/><path stroke="#FFF" d="M125.5 25.5h49v49h-49z"/><use fill="#CFD8DC" xlink:href="#p"/><path stroke="#FFF" d="M175.5 25.5h49v49h-49z"/><use fill="#CFD8DC" xlink:href="#q"/><path stroke="#FFF" d="M225.5 25.5h49v49h-49z"/><g><use fill="#CFD8DC" xlink:href="#r"/><path stroke="#FFF" d="M225.5 75.5h49v49h-49z"/></g><g><use fill="#CFD8DC" xlink:href="#s"/><path stroke="#FFF" d="M225.5 125.5h49v49h-49z"/></g><g><use fill="#CFD8DC" xlink:href="#t"/><path stroke="#FFF" d="M225.5 175.5h49v49h-49z"/></g><g><use fill="#CFD8DC" xlink:href="#u"/><path stroke="#FFF" d="M225.5 225.5h49v49h-49z"/></g><g><use fill="#CFD8DC" xlink:href="#v"/><path stroke="#FFF" d="M175.5 75.5h49v49h-49z"/></g><text font-family="Helvetica-Bold, Helvetica" font-size="14" font-weight="bold" fill="#000"><tspan x="142" y="204">i, j</tspan></text><g><use fill="#CFD8DC" xlink:href="#w"/><path stroke="#FFF" d="M175.5 175.5h49v49h-49z"/></g><g><use fill="#CFD8DC" xlink:href="#x"/><path stroke="#FFF" d="M300.5 234.5h14v14h-14z"/></g><g><use fill="#CFD8DC" xlink:href="#y"/><path stroke="#FFF" d="M175.5 225.5h49v49h-49z"/></g><g><use fill="#627D89" xlink:href="#z"/><path stroke="#FFF" d="M125.5 75.5h49v49h-49z"/></g><g><use fill="#627D89" xlink:href="#A"/><path stroke="#FFF" d="M175.5 125.5h49v49h-49z"/></g><g><use fill="#627D89" xlink:href="#B"/><path stroke="#FFF" d="M300.5 211.5h14v14h-14z"/></g><text font-family="Helvetica" font-size="14" fill="#000"><tspan x="325" y="222">check</tspan></text><text font-family="Helvetica" font-size="14" fill="#000"><tspan x="325" y="245">others</tspan></text><text font-family="Helvetica" font-size="14" fill="#000"><tspan x="325" y="268">current</tspan></text><text font-family="Helvetica-Bold, Helvetica" font-size="14" font-weight="bold" fill="#FFF"><tspan x="136" y="154">i-1, j</tspan></text></g></svg>