<svg width="260pt" height="98pt" viewBox="0 0 260 97.53" xmlns="http://www.w3.org/2000/svg"><g class="graph" transform="translate(4 93.5345)"><path fill="#fff" stroke="transparent" d="M-4 4v-97.5345h260V4H-4z"/><g class="node"><ellipse fill="#cfd8dc" cx="18" cy="-29.5345" rx="18" ry="18"/><text text-anchor="middle" x="18" y="-25.3345" font-family="Times,serif" font-size="14">1</text></g><g class="node"><ellipse fill="#cfd8dc" cx="90" cy="-29.5345" rx="18" ry="18"/><text text-anchor="middle" x="90" y="-25.3345" font-family="Times,serif" font-size="14">2</text></g><g class="edge"><path fill="none" stroke="#637d87" d="M36.1686-29.5345h25.4148"/><path fill="#637d87" stroke="#637d87" d="M61.5868-33.0346l9.9999 3.5001-10 3.4999.0001-7z"/></g><g class="node"><ellipse fill="#cfd8dc" cx="162" cy="-71.5345" rx="18" ry="18"/><text text-anchor="middle" x="162" y="-67.3345" font-family="Times,serif" font-size="14">4</text></g><g class="edge"><path fill="none" stroke="#637d87" d="M33.5361-38.8647C44.0508-44.7817 58.4438-52.1263 72-56.5345c20.1794-6.5621 43.8832-10.3638 61.8977-12.4973"/><path fill="#637d87" stroke="#637d87" d="M133.718-72.5327l10.3185 2.4038-9.5654 4.5556-.7531-6.9594z"/></g><g class="node"><ellipse fill="#cfd8dc" cx="234" cy="-48.5345" rx="18" ry="18"/><text text-anchor="middle" x="234" y="-44.3345" font-family="Times,serif" font-size="14">3</text></g><g class="edge"><path fill="none" stroke="#637d87" d="M33.3269-19.4574C43.7533-13.2251 58.1264-5.8097 72-2.5345c15.572 3.676 20.2444 2.786 36 0 36.237-6.4079 75.7476-22.4324 100.6827-33.7597"/><path fill="#637d87" stroke="#637d87" d="M207.256-39.4906l10.5444-1.0326-7.5989 7.3828-2.9455-6.3502z"/></g><g class="edge"><path fill="none" stroke="#637d87" d="M105.6229-38.6479c9.3407-5.4487 21.4103-12.4893 31.9839-18.6573"/><path fill="#637d87" stroke="#637d87" d="M136.0062-60.4234l10.4014-2.0156-6.8743 8.062-3.5271-6.0464z"/></g><g class="edge"><path fill="none" stroke="#637d87" d="M176.9184-61.1762c8.3764 3.7223 19.1038 7.4858 28.9933 10.272"/><path fill="#637d87" stroke="#637d87" d="M206.95-54.2517l8.8305 5.8544-10.5539.9301 1.7234-6.7845z"/></g><g class="edge"><path fill="none" stroke="#637d87" d="M215.8273-46.1368c-24.5886 3.2444-68.6978 9.0643-97.6144 12.8797"/><path fill="#637d87" stroke="#637d87" d="M118.3185-29.7408l-10.372-2.1617 9.4563-4.7781.9157 6.9398z"/></g><g class="edge"><path fill="none" stroke="#637d87" d="M218.9941-58.9317c-8.3829-3.7182-19.1002-7.4741-28.9742-10.2524"/><path fill="#637d87" stroke="#637d87" d="M189.001-65.8316l-8.8324-5.8515 10.5537-.9337-1.7213 6.7852z"/></g></g></svg>