<svg width="394pt" height="280" viewBox="0 0 394 210" xmlns="http://www.w3.org/2000/svg"><g class="graph" transform="translate(4 206)"><path fill="#fff" stroke="transparent" d="M-4 4v-210h394V4H-4z"/><g class="node"><path fill="#cfd8dc" stroke="transparent" d="M8-130.5v-30h50v30H8z"/><path fill="none" stroke="#637d87" d="M8-130.5v-30h50v30H8z"/><text x="29.5" y="-141.3" font-family="Times,serif" font-size="14">1</text><path fill="#cfd8dc" stroke="transparent" d="M8-100.5v-30h50v30H8z"/><path fill="none" stroke="#637d87" d="M8-100.5v-30h50v30H8z"/><text x="29.5" y="-111.3" font-family="Times,serif" font-size="14">2</text><path fill="#cfd8dc" stroke="transparent" d="M8-70.5v-30h50v30H8z"/><path fill="none" stroke="#637d87" d="M8-70.5v-30h50v30H8z"/><text x="29.5" y="-81.3" font-family="Times,serif" font-size="14">3</text><path fill="#cfd8dc" stroke="transparent" d="M8-40.5v-30h50v30H8z"/><path fill="none" stroke="#637d87" d="M8-40.5v-30h50v30H8z"/><text x="29.5" y="-51.3" font-family="Times,serif" font-size="14">4</text></g><g class="node"><path fill="#cfd8dc" stroke="#637d87" d="M152-165.5v-36h54v36h-54z"/><text text-anchor="middle" x="166" y="-179.3" font-family="Times,serif" font-size="14">2</text><path fill="none" stroke="#637d87" d="M180-165.5v-36"/><text text-anchor="middle" x="192.75" y="-179.3" font-family="Times,serif" font-size="14"></text></g><g class="edge"><path fill="none" stroke="#637d87" d="M58-145.5c41.3658 0 48.0247-32.0213 83.6964-37.2748"/><path fill="#637d87" stroke="#637d87" d="M141.7789-186.2892L152-183.5l-9.7296 4.1935-.4915-6.9827z"/></g><g class="node"><path fill="#cfd8dc" stroke="#637d87" d="M152-110.5v-36h54v36h-54z"/><text text-anchor="middle" x="166" y="-124.3" font-family="Times,serif" font-size="14">4</text><path fill="none" stroke="#637d87" d="M180-110.5v-36"/><text text-anchor="middle" x="192.75" y="-124.3" font-family="Times,serif" font-size="14"></text></g><g class="edge"><path fill="none" stroke="#637d87" d="M58-115.5c38.551 0 49.9259-10.8616 83.806-12.7285"/><path fill="#637d87" stroke="#637d87" d="M141.9103-131.7324L152-128.5l-9.9032 3.7651-.1865-6.9975z"/></g><g class="node"><path fill="#cfd8dc" stroke="#637d87" d="M152-55.5v-36h54v36h-54z"/><text text-anchor="middle" x="166" y="-69.3" font-family="Times,serif" font-size="14">4</text><path fill="none" stroke="#637d87" d="M180-55.5v-36"/><text text-anchor="middle" x="192.75" y="-69.3" font-family="Times,serif" font-size="14"></text></g><g class="edge"><path fill="none" stroke="#637d87" d="M58-85.5c38.4974 0 49.9657 10.0261 83.8174 11.7494"/><path fill="#637d87" stroke="#637d87" d="M142.0892-77.2451L152-73.5l-10.0831 3.2528.1723-6.9979z"/></g><g class="node"><path fill="#cfd8dc" stroke="#637d87" d="M152-.5v-36h54v36h-54z"/><text text-anchor="middle" x="166" y="-14.3" font-family="Times,serif" font-size="14">3</text><path fill="none" stroke="#637d87" d="M180-.5v-36"/><text text-anchor="middle" x="192.75" y="-14.3" font-family="Times,serif" font-size="14"></text></g><g class="edge"><path fill="none" stroke="#637d87" d="M58-55.5c41.2147 0 48.1387 31.1787 83.7275 36.2939"/><path fill="#637d87" stroke="#637d87" d="M142.2636-22.6776L152-18.5l-10.2165 2.8059.4801-6.9835z"/></g><g class="node"><path fill="#cfd8dc" stroke="#637d87" d="M242-165.5v-36h54v36h-54z"/><text text-anchor="middle" x="256" y="-179.3" font-family="Times,serif" font-size="14">3</text><path fill="none" stroke="#637d87" d="M270-165.5v-36"/><text text-anchor="middle" x="282.75" y="-179.3" font-family="Times,serif" font-size="14"></text></g><g class="edge"><path fill="none" stroke="#637d87" d="M206-183.5h25.875"/><path fill="#637d87" stroke="#637d87" d="M232-187.0001l10 3.5001-10 3.4999v-7z"/></g><g class="node"><path fill="#cfd8dc" stroke="#637d87" d="M332-165.5v-36h54v36h-54z"/><text text-anchor="middle" x="346" y="-179.3" font-family="Times,serif" font-size="14">4</text><path fill="none" stroke="#637d87" d="M360-165.5v-36"/><text text-anchor="middle" x="372.75" y="-179.3" font-family="Times,serif" font-size="14"></text></g><g class="edge"><path fill="none" stroke="#637d87" d="M296-183.5h25.875"/><path fill="#637d87" stroke="#637d87" d="M322-187.0001l10 3.5001-10 3.4999v-7z"/></g><g class="node"><path fill="#cfd8dc" stroke="#637d87" d="M242-55.5v-36h54v36h-54z"/><text text-anchor="middle" x="256" y="-69.3" font-family="Times,serif" font-size="14">2</text><path fill="none" stroke="#637d87" d="M270-55.5v-36"/><text text-anchor="middle" x="282.75" y="-69.3" font-family="Times,serif" font-size="14"></text></g><g class="edge"><path fill="none" stroke="#637d87" d="M206-73.5h25.875"/><path fill="#637d87" stroke="#637d87" d="M232-77.0001L242-73.5l-10 3.4999v-7z"/></g></g></svg>